<?xml version="1.0" encoding="utf-8"?>
<!-- Generator: Adobe Illustrator 27.5.0, SVG Export Plug-In . SVG Version: 6.00 Build 0)  -->
<svg version="1.1" xmlns="http://www.w3.org/2000/svg" xmlns:xlink="http://www.w3.org/1999/xlink" x="0px" y="0px"
	 viewBox="0 0 2200 2200" style="enable-background:new 0 0 2200 2200;" xml:space="preserve">
<g id="background">
	<rect style="fill:#FFFFFF;" width="2200" height="2200"/>
</g>
<g id="Objects">
	<g>
		<g>
			<path style="fill:#E05510;" d="M408.968,1206.407c0,84.342,10.677,174.109,30.536,259.765
				c-85.837-127.098-135.964-280.304-135.964-445.222c0-21.45,0.853-42.689,2.521-63.707
				c34.81-75.007,71.643-115.156,103.147-138.59c32.184-23.951,64.215-35.069,95.422-33.171
				c-13.131,28.005-24.996,56.49-35.548,85.406C429.191,980.159,408.968,1093.053,408.968,1206.407z"/>
			<path style="fill:#E05510;" d="M316.613,876.466c15.201-82.933,43.235-161.372,81.985-233.178
				c59.509-13.84,119.881-18.22,196.201-14.329c-28.753,41.558-54.391,84.649-76.78,129.034
				c-41.404-5.952-84.85,6.977-125.977,37.59C364.698,815.931,338.619,843.994,316.613,876.466z"/>
			<path style="fill:#E05510;" d="M417.671,609.896c49.791-82.473,114.111-155.19,189.416-214.594
				c1.735,17.367,8.243,32.817,14.089,42.257c13.917,22.437,34.743,40.245,61.896,52.915c5.684,2.655,11.655,5.07,17.846,7.227
				c-23.903,25.456-46.685,52.043-68.212,79.675c-6.191,7.936-12.249,15.948-18.191,24.009c-1.227-0.105-2.454-0.22-3.661-0.316
				l-0.259-0.019C535.692,596.373,475.502,598.999,417.671,609.896z"/>
			<path style="fill:#E05510;" d="M645.615,422.397c-6.882-11.089-13.552-31.906-8.195-49.887
				c129.408-92.479,287.665-147.187,458.659-148.002c-137.631,56.097-265.525,142.002-372.812,250.037
				C688.17,465.009,660.806,446.895,645.615,422.397z"/>
			<path style="fill:#E05510;" d="M1233.999,1773.102c25.494,6.882,51.899,12.057,79.033,15.498
				c-67.809,18.776-139.242,28.811-213.031,28.811c-247.324,0-468.32-112.731-614.405-289.61
				c-30.91-102.869-47.874-216.453-47.874-321.392c0-109.98,19.638-219.558,58.369-325.667
				c11.147-30.536,23.807-60.583,37.916-90.083c34.149,9.153,72.467,30.823,119.392,96.62
				c31.465,44.107,63.813,104.584,96.131,179.755c37.369,86.882,75.946,196.249,114.667,325.063
				c41.318,137.421,113.843,242.072,215.571,311.032C1125.859,1734.371,1177.748,1757.92,1233.999,1773.102z"/>
			<path style="fill:#E05510;" d="M757.762,480.862c118.29-114.993,260.79-202.853,412.932-253.276
				c225.683,19.849,424.347,133.817,556.506,302.415c-14.031-12.488-28.58-24.354-43.628-35.577
				c-76.502-57.065-148.289-84.323-195.042-97.147c-135.254-37.082-273.72-0.201-407.623,35.462
				c-92.594,24.651-187.959,50.059-280.678,50.049c-12.191,0-24.363-0.431-36.459-1.38
				C761.749,481.255,759.755,481.063,757.762,480.862z"/>
			<path style="fill:#E05510;" d="M1800.252,1400.74c-90.083,165.733-237.27,295.917-415.166,364.129
				c-50.212-0.796-98.431-7.332-143.593-19.523c-53.165-14.357-102.15-36.564-145.586-66.017
				c-96.122-65.154-164.813-164.583-204.166-295.515c-39.047-129.858-78.007-240.261-115.798-328.14
				c-33.124-77.049-66.477-139.318-99.131-185.103c-49.503-69.391-92.719-94.933-129.82-106.108
				c23.501-45.775,50.577-90.131,81.055-132.782c132.283,15.69,361.848,89.595,598.629,225.625
				c128.804,73.991,242.619,156.541,338.28,245.35C1667.279,1197.657,1746.35,1297.833,1800.252,1400.74z"/>
			<path style="fill:#E05510;" d="M1896.46,1020.95c0,125.105-28.839,243.471-80.24,348.804
				c-55.024-99.591-132.801-196.355-231.702-288.173c-97.252-90.285-212.83-174.129-343.513-249.212
				c-113.143-64.992-234.807-121.424-351.823-163.183c-89.796-32.04-173.937-54.228-241.631-63.947
				c2.588-3.412,5.195-6.805,7.83-10.188c24.172-31.025,49.973-60.698,77.183-88.885c9.402,1.821,19.102,3.144,28.983,3.92
				c12.929,0.997,25.868,1.466,38.836,1.466c96.294,0,193.537-25.897,287.924-51.027c65.605-17.472,133.443-35.539,199.326-44.328
				c72.956-9.728,136.184-6.843,193.288,8.818c44.366,12.163,112.559,38.079,185.457,92.451
				c61.167,45.622,113.728,102.37,156.666,169.03C1870.161,788.184,1896.46,901.5,1896.46,1020.95z"/>
		</g>
		<ellipse style="fill:#D1D1D1;" cx="1100" cy="1933.107" rx="746.188" ry="42.383"/>
	</g>
</g>
</svg>
