<?xml version="1.0" encoding="utf-8"?>
<!-- Generator: Adobe Illustrator 27.5.0, SVG Export Plug-In . SVG Version: 6.00 Build 0)  -->
<svg version="1.1" id="Layer_1" xmlns="http://www.w3.org/2000/svg" xmlns:xlink="http://www.w3.org/1999/xlink" x="0px" y="0px"
	 viewBox="0 0 5120 5120" style="enable-background:new 0 0 5120 5120;" xml:space="preserve">
<g>
	<path style="fill:#ED762A;stroke:#ED762A;stroke-width:0.0938;" d="M2515.348,823.24c28.35-28.35,70.2-36.45,108.9-40.95
		c52.2-1.8,105.75,17.1,144.9,51.75c-22.5-0.9-44.55,3.6-66.6,9.45c-9.9,3.15-17.55-5.85-25.65-9.45
		C2629.198,803.89,2567.549,805.69,2515.348,823.24z"/>
	<path style="fill:#080905;stroke:#080905;stroke-width:0.0938;" d="M2515.348,823.24c52.2-17.1,113.85-19.35,161.55,10.8
		c8.1,3.6,15.75,12.6,25.65,9.45c21.6-5.85,43.65-10.35,66.6-9.45c6.75,6.3,13.5,13.05,19.35,20.7c-25.65-9-53.1-4.05-78.75,2.25
		c6.75,9.45,13.95,19.35,21.15,28.35c15.3-3.15,31.5-6.75,46.8-1.8c24.3,8.1,42.3,29.7,52.2,52.65c2.7,10.35,2.7,21.6,2.25,32.4
		c-11.25-25.65-24.75-54-51.3-67.05c-12.6-6.75-27-4.95-40.5-3.15c36,70.65,44.1,158.4,11.7,232.2c-7.2,7.2-16.2,10.8-25.2,14.85
		c42.75-72.9,38.25-168.3-2.25-241.2c-22.05,17.55-40.5,39.6-53.1,65.25c-32.4,63.9-55.35,136.35-110.7,184.95
		c-3.15-2.25-9.9-6.3-13.5-8.55c-3.6,2.7-7.2,5.4-9.9,8.55l-1.35,0.9c0-2.7,0-7.65,0-9.9c22.95-3.6,36-24.3,49.05-41.4
		c37.8-51.3,53.55-114.75,88.2-167.85c11.25-18,27-31.95,44.1-44.1c-8.1-9.9-16.65-19.8-25.2-29.7c-54,18-105.75,42.3-152.1,75.6
		c-39.6,27.45-74.25,66.15-86.4,113.85c-4.5-7.65-8.55-15.75-8.1-24.75c25.65-61.65,81.9-103.5,139.05-134.1
		c30.15-16.2,62.1-29.25,94.05-40.5c-58.05-38.25-135-31.5-193.95,0.9C2491.499,839.89,2502.749,829.99,2515.348,823.24z"/>
	<path style="fill:#EC7329;stroke:#EC7329;stroke-width:0.0938;" d="M2484.749,852.49c58.95-32.4,135.9-39.15,193.95-0.9
		c-32.4,11.7-63.9,24.3-94.05,40.5c-57.15,30.6-113.4,72.9-139.05,134.1c-10.8-25.65-8.55-54.45-5.4-81.45
		C2446.948,911.44,2460.448,877.69,2484.749,852.49z"/>
	<path style="fill:#E97129;stroke:#E97129;stroke-width:0.0938;" d="M2709.299,857.44c25.65-6.3,53.1-11.25,78.75-2.25
		c21.15,22.95,35.55,51.3,40.95,81.9c-9.9-23.4-27.45-44.55-52.2-52.65c-15.3-5.4-31.5-1.8-46.8,1.8
		C2723.249,876.341,2716.049,866.89,2709.299,857.44z"/>
	<path style="fill:#EE7128;stroke:#EE7128;stroke-width:0.0938;" d="M2539.649,937.54c46.35-32.85,98.55-57.6,152.1-75.6
		c8.55,9.9,17.1,19.8,25.2,29.7c-17.1,12.15-32.85,26.1-44.1,44.1c-34.65,53.1-50.4,116.55-88.2,167.85
		c-13.05,17.1-26.1,37.8-49.05,41.4c-8.1-6.3-16.2-12.6-24.3-18.45c-25.65-19.35-46.35-45.9-58.05-75.6
		C2465.848,1003.69,2500.049,964.99,2539.649,937.54z"/>
	<path style="fill:#EE7429;stroke:#EE7429;stroke-width:0.0938;" d="M2739.899,898.841c13.5-1.35,27.9-3.6,40.5,3.15
		c26.55,12.6,39.6,41.4,51.3,67.05c3.15,43.2-12.6,85.5-36.9,120.6c-11.7,16.2-25.65,31.5-43.2,41.4
		C2783.999,1057.24,2775.899,969.49,2739.899,898.841z"/>
	<path style="fill:#ED7229;stroke:#ED7229;stroke-width:0.0938;" d="M2671.049,969.49c12.6-25.65,31.05-47.7,53.1-65.25
		c40.95,72.9,45,168.3,2.25,241.2c-2.7,3.6-6.3,6.3-9,9.45c-7.65-3.15-15.75-8.55-24.3-4.95c-16.2,6.75-30.6,18-48.6,20.7
		c-22.95-0.9-45.45-5.4-68.4-6.3c-5.4-3.15-10.35-6.75-15.75-9.9C2615.698,1105.84,2638.649,1033.39,2671.049,969.49z"/>
	<path style="fill:#6A3B36;stroke:#6A3B36;stroke-width:0.0938;" d="M2916.749,927.64c0.45-11.7,20.25-9.45,20.25,1.8
		c5.4,36.45,6.3,72.9,12.15,109.35c8.1-13.05,5.85-28.8,8.1-43.2c2.7-20.25,1.35-41.4,6.3-61.65c3.15-9.9,18.45-4.95,18.45,4.5
		c3.6,34.65-2.7,69.75-2.7,104.4c13.95-19.35,16.65-43.65,27.9-64.35c1.8-7.65,9.9-9,15.75-4.95c3.15,36-20.25,67.95-23.4,103.05
		c0,28.35,4.95,57.6-2.25,85.5c-1.8,9.45-5.85,19.8-2.25,29.7c40.05,99.45,83.25,198,119.25,298.8c8.1,25.2,19.35,49.95,21.6,76.5
		c1.8,18.45-8.1,35.1-15.75,50.85c-21.6,42.3-42.75,84.6-64.35,126.9c-8.1,15.3-15.75,30.15-23.85,45.45
		c-41.85-31.95-71.1-77.85-93.6-125.1c18-20.25,31.05-43.65,46.35-65.7c7.2-12.15,17.55-22.95,21.6-36.9
		c-27.45-105.3-48.15-212.4-73.8-318.6c-4.5-15.3-4.05-33.75-16.65-45.45c-15.75-15.75-31.05-32.4-44.1-49.95
		c-8.55-10.8-16.2-23.4-28.8-29.7c-9.45-5.4-21.15-8.1-28.8-16.2c0.45-12.15,15.75-15.75,25.65-13.5
		c21.6,1.35,34.65,21.15,53.1,29.25c5.4-21.15-4.05-41.4-7.65-62.1c0.9-12.6,3.15-27.9,18.45-28.8l1.35-0.45
		c3.6,7.2,7.65,14.85,14.4,19.35C2918.999,1006.39,2911.348,966.79,2916.749,927.64z"/>
	<path style="fill:#5F322F;stroke:#5F322F;stroke-width:0.0938;" d="M2858.249,958.69c6.75-0.45,15.3-3.6,18.45,4.5
		c12.15,19.8,18,42.75,27,63.9c-15.3,0.9-17.55,16.65-18.45,28.8C2872.649,1024.84,2860.049,992.44,2858.249,958.69z"/>
	<path style="fill:#5A2E27;stroke:#5A2E27;stroke-width:0.0938;" d="M2511.749,1126.99c8.1,5.85,16.2,11.7,24.3,18.45
		c0,2.7,0,7.65,0,9.9c-7.2,4.5-15.3,5.85-23.4,8.1C2511.299,1151.29,2510.848,1139.14,2511.749,1126.99z"/>
	<path style="fill:#8E8E92;stroke:#8E8E92;stroke-width:0.0938;" d="M2536.948,1154.89c3.15-3.15,6.75-5.85,9.9-8.55
		c3.15,2.25,9.9,6.75,13.5,8.55c5.4,3.15,10.35,6.75,15.75,9.9c-10.35,6.75-20.25,13.05-30.6,19.35
		C2542.348,1174.24,2539.198,1164.34,2536.948,1154.89z"/>
	<path style="fill:#693B35;stroke:#693B35;stroke-width:0.0938;" d="M2693.098,1150.39c8.55-3.6,16.65,2.25,24.3,4.95
		c-13.95,23.85-39.6,36.45-62.55,50.4c-20.7,12.6-39.6,27.9-61.2,38.25c-18.45,9-39.15,16.2-50.85,34.65
		c-48.6,71.55-99,141.75-144.9,214.65c-14.4,23.4-32.4,45-45.9,69.3c13.5,25.65,31.05,48.6,45.9,73.35c9,13.5,15.3,30.15,30.6,38.25
		c-14.4,56.7-53.1,106.65-105.75,133.2c-11.25-17.1-20.25-35.1-28.8-53.55c-24.3-52.2-50.4-103.95-72.45-157.05
		c-8.1-18.9-17.1-40.5-10.35-61.2c8.55-23.4,27.45-40.95,44.1-58.95c72.9-81.45,150.3-158.85,225.45-238.05
		c5.4-6.3,7.2-14.4,9.45-22.05c4.5-18.9,22.95-31.95,22.5-52.65c8.1-1.8,16.2-3.6,23.4-8.1l1.35-0.9c2.25,9.9,4.95,19.8,8.55,29.25
		c4.5,4.05,9.9,6.3,15.75,4.5c27.9-4.05,55.8-10.35,83.25-17.55C2662.499,1168.39,2676.899,1157.59,2693.098,1150.39z"/>
	<path style="fill:#110C08;stroke:#110C08;stroke-width:0.0938;" d="M2576.098,1164.79c22.95,0.9,45.45,5.4,68.4,6.3
		c-27.45,7.2-55.35,13.5-83.25,17.55c-6.3,1.8-11.25-0.45-15.75-4.5C2555.848,1177.84,2565.749,1171.09,2576.098,1164.79z"/>
	<path style="fill:#0B0B0B;stroke:#0B0B0B;stroke-width:0.0938;" d="M2625.598,1459.541c19.35-11.25,40.95,0.9,61.2,1.8
		c14.4,2.25,31.5-1.8,43.2,9c13.95,10.35,30.15,16.65,42.3,29.25c8.1,8.55,11.25,20.25,15.3,30.6c5.4,14.85,12.6,29.25,12.6,45
		c-0.45,20.25-4.5,40.5-12.15,58.95c-8.1,0.9-18.9-4.5-24.75,3.6c-8.55,9.9-14.85,22.05-22.05,32.85c0-16.65,3.6-33.3,1.8-49.95
		c-7.65-18.9-17.55-37.35-30.6-53.1c-18.9-4.5-39.15-3.6-57.6-10.35c-22.95-7.65-48.6-15.75-71.55-4.95c-18,7.2-22.05,27.9-27,44.1
		c-14.85-25.65-5.85-55.35-1.8-82.8c6.75-12.15,13.95-24.3,21.6-36C2591.848,1469.89,2609.848,1467.64,2625.598,1459.541z"/>
	<path style="fill:#693A35;stroke:#693A35;stroke-width:0.0938;" d="M2583.749,1553.14c23.4-10.8,49.05-3.15,71.55,4.95
		c18.45,6.75,38.7,5.85,57.6,10.35c13.05,15.75,22.5,34.2,30.6,53.1c1.8,16.65-2.25,33.3-1.8,49.95c7.2-10.8,13.5-22.95,22.05-32.85
		c5.85-8.1,16.65-2.7,24.75-3.6c1.35,11.7,5.4,23.85,1.8,35.55c-3.6,13.5-12.6,24.75-22.05,34.65l-1.8,0.45
		c-6.75,0.9-13.05,1.8-19.35,3.15c-0.9,7.65-0.45,15.3-0.45,22.95v1.35c-2.25,23.85,0.9,47.25,0.9,71.1
		c-0.45,16.2,1.35,37.8-16.2,45.9c-35.55,18.45-81.45,5.4-111.15-18.45c22.95-8.55,48.15-13.95,68.4-28.8
		c18.9-12.6,32.85-30.15,44.55-49.5c-32.85,27.9-75.15,50.4-119.7,42.3c-22.05-11.25-37.8-31.95-45-55.35
		c-15.75-45.45-16.2-94.95-11.25-142.2C2561.698,1581.041,2565.749,1559.89,2583.749,1553.14z"/>
	<path style="fill:#F58C30;stroke:#F58C30;stroke-width:0.0938;" d="M2925.749,1670.14c3.15-3.15,8.1-12.15,13.05-5.4
		c22.5,47.25,51.75,92.7,93.6,125.1c9,6.3,18.45,11.25,28.8,15.3c-6.3,18-18.45,32.85-27.9,49.5
		c-31.5,52.65-64.8,104.85-95.4,157.95c1.8,63,5.4,126,0.45,189c-2.25,76.95-14.85,153-20.25,229.5
		c-6.75,58.05-10.35,117-4.95,175.05c0.9,17.55,5.4,34.65,4.95,52.2c-32.4-15.3-67.05-23.4-101.25-33.75
		c-81.45-22.05-166.95-36.9-251.55-27.9c-72.45,7.65-140.4,36.45-206.1,66.6c-1.8-0.45-4.95-1.35-6.3-2.25
		c5.85-62.1,15.3-123.75,23.4-185.4c3.15-31.05,18-58.5,29.25-86.85c6.3-14.85,4.05-31.5,3.6-47.25c-3.15-103.5-4.95-207-9.45-310.5
		c-1.35-11.7-8.55-21.6-13.95-31.5c-34.65-60.75-67.5-122.4-104.4-181.8c13.95-2.25,27.45-4.95,40.5-9.9
		c52.65-26.55,91.35-76.5,105.75-133.2c33.75,30.6,56.25,72,87.75,104.85c31.05,7.2,61.2,18.45,90.9,30.15
		c1.8,4.95,3.15,9.9,5.4,14.85c2.25,2.25,4.5,4.95,7.2,7.2c30.15,23.85,75.6,36.9,111.15,18.45c17.55-8.1,15.75-29.7,16.2-45.9
		c25.65,0.45,50.85-3.6,76.05-5.4C2857.348,1755.19,2892.448,1713.34,2925.749,1670.14z"/>
	<path style="fill:#171712;stroke:#171712;stroke-width:0.0938;" d="M2746.649,1707.94c6.3-1.35,13.05-2.25,19.35-3.15
		c-5.85,9-12.6,17.55-19.8,25.65C2745.749,1723.24,2745.749,1715.59,2746.649,1707.94z"/>
	<path style="fill:#070602;stroke:#070602;stroke-width:0.0938;" d="M3032.848,1789.84c8.1-15.3,15.75-30.15,23.85-45.45
		c5.85,13.5,10.35,27.9,10.8,43.2c0,6.3,0.9,14.4-5.85,17.55C3051.299,1801.09,3041.399,1796.14,3032.848,1789.84z"/>
	<path style="fill:#0C0B08;stroke:#0C0B08;stroke-width:0.0938;" d="M2612.999,1794.791c44.55,8.1,86.4-14.85,119.7-42.3
		c-11.25,19.35-25.65,36.9-44.55,49.5c-20.25,14.85-45.45,19.8-68.4,28.8c-2.7-2.25-4.95-4.95-7.2-7.2
		C2611.649,1813.69,2612.098,1804.24,2612.999,1794.791z"/>
	<path style="fill:#030402;stroke:#030402;stroke-width:0.0938;" d="M2293.948,1753.39c8.55,18.45,18,36.45,28.8,53.55
		c-13.05,4.95-27,7.65-40.5,9.9C2274.149,1795.24,2286.299,1773.19,2293.948,1753.39z"/>
	<path style="fill:#1F2540;stroke:#1F2540;stroke-width:0.0938;" d="M2565.749,2596.24c84.6-9,169.65,6.3,251.55,27.9
		c33.75,10.35,68.85,18.9,101.25,33.75c33.75,112.95,72.45,224.55,103.5,337.95c-5.85,1.35-11.25,2.7-17.1,4.05
		c-4.95-6.3-12.15-11.25-20.25-11.7c-42.75-5.4-88.2-2.25-127.8,16.2c-24.75,11.25-45.9,28.8-66.15,47.25
		c-23.85,22.05-42.75,49.5-53.55,80.1c-23.85-57.6-45-116.1-67.5-174.6c-3.15-8.55-7.2-16.65-11.7-24.75
		c-24.3,96.3-48.15,193.05-73.8,288.9c-28.8-0.45-58.05-3.6-85.95-9.9c-67.5-12.6-134.55-29.7-199.8-52.65
		c-6.75-2.7-13.5-5.4-20.25-8.55c18-99,35.1-198,51.3-297.45c9.45-63.9,22.95-126.9,30.6-190.8
		C2425.348,2632.69,2493.299,2603.89,2565.749,2596.24z"/>
	<path style="fill:#673B35;stroke:#673B35;stroke-width:0.0938;" d="M2856.899,3004.84c39.6-18.9,84.6-21.6,127.8-16.2
		c8.55,0.45,15.3,5.4,20.25,11.7c4.5,11.7,9,23.4,13.05,35.55c5.4,22.95,13.95,45.9,13.05,69.75
		c-2.25,34.2-13.95,67.05-22.05,100.35c-31.5,120.15-63,239.85-97.65,358.65l-3.15,1.35c-36.9-9-74.25-18-111.6-24.3
		c-5.85-1.35-12.15-2.7-18-4.05c13.95-78.75,0.9-158.85,9.45-238.05c9.45-56.25,28.8-110.7,50.85-163.35l-2.25-4.5
		c-13.95-27-31.05-52.2-45.45-79.2C2810.549,3033.64,2831.698,3016.541,2856.899,3004.84z"/>
	<path style="fill:#070806;stroke:#070806;stroke-width:0.0938;" d="M3004.499,3000.34c5.85-1.35,11.25-2.7,17.1-4.05
		c5.4,13.5,4.5,27.45-4.5,39.6C3013.499,3023.74,3009.448,3012.041,3004.499,3000.34z"/>
	<path style="stroke:#000000;stroke-width:0.0938;" d="M2736.749,3131.74c10.8-30.6,29.7-58.05,53.55-80.1
		c14.4,27,31.5,52.2,45.45,79.2c-23.85,11.7-49.95,20.7-76.5,19.8C2747.999,3150.64,2736.749,3143.44,2736.749,3131.74z"/>
	<path style="fill:#683B35;stroke:#683B35;stroke-width:0.0938;" d="M2297.999,3159.19c64.8,23.4,131.85,40.5,199.8,52.65
		c-6.75,0-10.8,4.05-12.15,10.8c-18.45,56.7-34.65,114.75-62.55,167.85c-30.6,58.5-54,120.15-80.55,180.45
		c-25.65,62.1-52.65,123.75-77.85,185.85l-5.85-1.8c-39.6-11.25-77.4-27-115.65-41.85c-2.25-0.9-6.3-3.15-8.55-4.5
		c7.65-34.65,14.85-68.85,22.5-103.5c12.6-57.6,21.6-116.55,43.65-171.45c18.45-49.05,49.5-92.25,73.35-138.15
		C2288.098,3251.44,2289.899,3204.64,2297.999,3159.19z"/>
	<path style="fill:#DADBDB;stroke:#DADBDB;stroke-width:0.0938;" d="M2776.799,3539.89c6.3,0.45,12.6,0.9,18.9,1.35
		c37.8,6.3,74.7,15.3,111.6,24.3l2.25,1.8c0,1.35,0.45,4.05,0.9,5.4c-16.2,65.7-37.35,130.05-52.2,196.2l-4.95-0.45
		c-10.8-0.9-22.5-2.7-32.85,2.25c-12.6,6.75-18.45,20.7-25.2,32.4c-9.9-10.35-22.95-16.2-35.55-22.95c-13.5-7.2-9-25.2-9.45-37.8
		C2757.899,3674.89,2769.598,3607.39,2776.799,3539.89z"/>
	<path style="fill:#DADBDB;stroke:#DADBDB;stroke-width:0.0938;" d="M2080.649,3925.99c18-72,36-144.45,52.2-216.9
		c2.7,0.9,7.65,2.7,10.35,3.6c38.25,15.3,76.05,30.6,115.65,41.85c1.8,0.45,5.4,1.8,7.2,2.25c-32.85,81.9-66.15,163.8-92.7,247.95
		c-22.5-2.25-44.1-11.25-66.6-10.35c-9.9,0-16.2,8.55-22.95,13.95c-6.3-10.8-16.2-21.15-15.3-34.2
		C2070.299,3957.94,2076.149,3942.19,2080.649,3925.99z"/>
	<path style="fill:#202640;stroke:#202640;stroke-width:0.0938;" d="M2735.848,3752.74c3.6-4.5,9-7.2,13.5-10.35
		c0.45,12.6-4.05,30.6,9.45,37.8c12.6,6.75,25.65,12.6,35.55,22.95c6.75-11.7,12.6-25.65,25.2-32.4c10.35-4.95,22.05-2.7,32.85-2.25
		c12.15,3.15,26.1,8.55,30.15,21.6c1.35,12.6-8.55,22.95-13.95,33.3c-8.1,11.7-10.35,26.1-12.15,40.05
		c-26.1-4.05-53.55-5.4-78.3,4.95c-5.4,1.35-8.55,6.3-10.8,10.8c32.4,0,67.05-12.6,97.65,4.95c-0.45,2.7-0.9,8.1-1.35,10.8
		c-27,2.25-58.05-7.2-80.55,12.15c12.6,3.15,25.65,2.7,38.7,1.8c17.1-1.35,33.75,4.05,50.4,7.65c0,3.15,0,9.45,0,12.6
		c-20.7,0-41.4-2.7-61.65,2.25c-7.65,1.8-5.85,10.8-8.1,16.2c3.15-0.45,9.9-1.35,13.5-1.8c1.35,4.5,2.7,9,4.05,13.05
		c-2.7,5.85-7.65,12.6,0.45,16.65c7.65,7.65,15.3,16.2,24.75,21.6c13.5,4.95,28.35,1.35,42.3,0.45c10.8,37.8,31.5,74.7,24.75,114.75
		l-0.45-0.45c-1.35-0.9-4.5-2.7-5.85-3.6c-38.7-4.05-70.2-27.9-100.8-49.5c-17.1-13.05-33.3-28.8-40.5-49.5
		c-8.1-22.5-13.95-46.35-28.8-65.7c-23.4-33.75-59.85-63-60.75-107.55v-0.45C2696.698,3808.99,2713.799,3779.291,2735.848,3752.74z"
		/>
	<path style="fill:#060706;stroke:#060706;stroke-width:0.0938;" d="M2653.499,3877.84c-9-17.55,10.8-31.05,21.6-41.85
		c0.9,44.55,37.35,73.8,60.75,107.55c14.85,19.35,20.7,43.2,28.8,65.7c7.65,20.7,23.4,36.45,40.5,49.5
		c30.6,21.6,62.1,45.45,100.8,49.5c1.35,0.9,4.5,2.7,5.85,3.6c-6.75,10.8-17.1,20.7-31.05,18.9c-22.95-2.7-41.85-16.65-60.3-29.25
		c-23.4-18-48.6-35.55-65.25-60.3c-15.75-22.5-17.1-51.75-33.3-74.25C2699.399,3937.24,2669.249,3912.49,2653.499,3877.84z"/>
	<path style="fill:#060805;stroke:#060805;stroke-width:0.0938;" d="M2778.598,3867.94c24.75-10.35,52.65-8.55,78.3-4.95
		c7.65,3.15,6.3,13.95,8.1,20.7c-30.6-17.55-65.25-4.95-97.65-4.95C2770.049,3874.24,2772.749,3869.291,2778.598,3867.94z"/>
	<path style="fill:#020403;stroke:#020403;stroke-width:0.0938;" d="M2783.549,3907.09c22.5-19.35,53.55-10.35,80.55-12.15h2.7
		c2.25,7.2,4.05,14.4,5.85,21.6c-16.65-3.6-33.3-8.55-50.4-7.65C2809.198,3909.791,2796.149,3910.24,2783.549,3907.09z"/>
	<path style="fill:#202741;stroke:#202741;stroke-width:0.0938;" d="M2001.449,4025.44c31.5-28.8,39.15-79.65,79.2-99.45
		c-4.05,15.75-9.9,31.5-11.7,48.15c-0.9,13.05,9,23.85,15.3,34.2c7.2-5.4,13.5-13.95,22.95-13.95c22.5-0.45,44.1,8.1,66.6,10.35
		c3.6,4.5,7.65,8.55,10.35,13.5c-2.7,15.3-9.45,29.25-12.15,44.55c-17.1-6.75-34.65-13.05-53.1-14.4
		c-12.6-0.9-24.3-4.05-35.55-10.35c-1.35,0.9-4.5,2.25-6.3,3.15c0.9,1.8,2.25,5.85,2.7,7.65c-3.6,5.4-8.1,10.8-9.45,17.55
		c3.15,0,9.45,0,12.6-0.45c-0.45,7.65-0.9,15.3-1.35,23.4c0,5.4-0.9,11.7,4.95,14.85c1.35,7.2,2.25,14.4,2.25,21.6
		c-0.9,2.7-2.25,7.65-3.15,10.35c0.9,1.35,2.25,3.6,2.7,4.95c2.7,6.75,4.5,13.95,6.75,20.7c-9,3.6-18,9-22.95,17.55
		c9,0,18.45,0,27.45-0.45c1.35,22.95,25.65,35.55,46.35,28.35c5.4-7.2,9-15.75,12.6-23.85c3.15,0.9,9.9,2.25,13.05,3.15
		c0,39.6,17.1,77.85,11.25,117.45l-0.9,0.45c-1.35,0.45-4.05,1.8-5.4,2.25c-14.85,6.3-30.6,13.5-46.8,8.55
		c-36-9.45-68.4-33.75-86.4-66.15c-22.5-40.05-17.55-87.3-27.9-130.5C2007.298,4087.99,2001.899,4056.94,2001.449,4025.44z"/>
	<path style="stroke:#000000;stroke-width:0.0938;" d="M2810.999,3931.39c20.25-5.4,40.95-2.25,61.65-2.25
		c3.6,9,5.85,18.45,5.4,28.35c-15.75-18-40.95-14.85-62.1-11.7c-3.15,0.45-9.9,1.35-13.5,1.8
		C2804.698,3941.74,2803.348,3932.74,2810.999,3931.39z"/>
	<path style="fill:#111427;stroke:#111427;stroke-width:0.0938;" d="M2815.948,3945.791c21.15-3.15,46.35-6.75,62.1,11.7l4.5,4.05
		l-6.75,2.25c-18.9,0.9-37.35-1.35-55.8-4.95C2818.649,3954.34,2817.299,3949.84,2815.948,3945.791z"/>
	<path style="stroke:#000000;stroke-width:0.0938;" d="M2820.448,3975.49c-8.1-4.05-3.15-10.8-0.45-16.65
		c18.45,3.15,36.9,5.4,55.8,4.95h6.75l-1.35,8.1c-0.45,1.35-0.9,3.6-1.35,4.95C2860.049,3974.59,2840.249,3974.59,2820.448,3975.49z
		"/>
	<path style="fill:#0C101D;stroke:#0C101D;stroke-width:0.0938;" d="M2881.198,3971.89l0.9-3.15c2.25,9.45,4.05,18.9,5.4,28.8
		c-13.95,0.9-28.8,4.5-42.3-0.45c-9.9-5.4-17.1-13.95-24.75-21.6c19.8-0.9,39.6-0.9,59.4,1.35
		C2880.299,3975.49,2880.749,3973.24,2881.198,3971.89z"/>
	<path style="fill:#010200;stroke:#010200;stroke-width:0.0938;" d="M1983.899,4055.59c0-12.6,8.55-22.5,17.55-29.7
		c0.45,31.5,5.85,62.55,13.5,92.7c10.35,43.2,5.4,90.9,27.9,130.5c18,32.4,50.4,56.7,86.4,66.15c16.2,5.4,32.4-2.25,46.8-8.55
		c1.35-0.45,4.05-1.8,5.4-2.25c-4.95,14.4-13.95,29.7-30.6,32.4c-33.75,5.4-65.7-12.15-90.45-33.3c-21.6-18-38.25-41.85-46.8-68.4
		c-9.9-29.25-7.65-60.75-13.5-90.9C1996.048,4114.541,1983.449,4085.74,1983.899,4055.59z"/>
	<path style="fill:#030405;stroke:#030405;stroke-width:0.0938;" d="M2077.049,4041.64c1.35-0.9,4.5-2.25,6.3-3.15
		c10.8,6.3,22.95,9.45,35.55,10.35c18.45,1.35,36,7.65,53.1,14.4c0,4.05,0.45,12.15,0.45,16.2c-28.8-8.1-58.5-19.8-88.65-13.05
		c-3.15,0-9.45,0.45-12.6,0.45c1.8-6.3,5.85-12.15,9.45-17.55C2079.299,4047.49,2077.948,4043.89,2077.049,4041.64z"/>
	<path style="fill:#151627;stroke:#151627;stroke-width:0.0938;" d="M2083.348,4066.39c30.6-6.75,59.85,4.95,88.65,13.05
		c-0.45,6.75-1.35,13.05-1.8,19.8c-28.35-11.25-58.95-9.9-88.65-9.45C2081.999,4082.14,2082.899,4074.041,2083.348,4066.39z"/>
	<path style="stroke:#000000;stroke-width:0.0938;" d="M2086.948,4104.641c-5.85-3.15-5.4-9.45-4.95-14.85
		c29.7,0,60.3-1.35,88.65,9.45c0,3.6,0,11.25,0,14.85C2143.198,4107.791,2114.848,4096.99,2086.948,4104.641z"/>
	<path style="fill:#121424;stroke:#121424;stroke-width:0.0938;" d="M2086.948,4104.641c28.35-7.65,56.25,3.15,83.7,9.45
		c-1.35,21.15-0.9,42.3-0.9,63c-22.5-7.65-45.9-12.6-69.75-15.75c-0.9,0-3.15,0.45-4.05,0.9c-2.25-7.2-4.05-13.95-6.75-20.7
		c18,0.9,36-0.9,54,3.15c8.55,0.9,17.1,5.85,25.65,1.35c-19.35-23.4-52.65-18-79.2-19.8
		C2088.749,4119.041,2088.299,4111.391,2086.948,4104.641z"/>
	<path style="fill:#020002;stroke:#020002;stroke-width:0.0938;" d="M2088.749,4126.24c27,1.35,60.3-3.6,79.2,19.8
		c-8.1,4.5-17.1,0-25.65-1.35c-17.55-4.05-36-2.25-54-3.15c-0.9-1.35-2.25-3.6-2.7-4.95
		C2086.948,4133.891,2088.299,4128.94,2088.749,4126.24z"/>
	<path style="stroke:#000000;stroke-width:0.0938;" d="M2099.549,4161.791c23.4,3.15,47.25,8.1,69.75,15.75
		c0.45,2.25,1.8,7.2,2.7,9.45c-3.15-0.9-9.9-2.25-13.05-3.15c-19.35-5.85-39.15-6.75-58.95-4.5c-9,0.45-18.45,0.45-27.45,0.45
		c4.95-8.55,13.95-13.95,22.95-17.55C2096.399,4162.24,2098.649,4161.791,2099.549,4161.791z"/>
	<path style="fill:#10131C;stroke:#10131C;stroke-width:0.0938;" d="M2099.999,4179.34c19.8-2.25,40.05-1.35,58.95,4.5
		c-4.05,8.1-7.2,16.65-12.6,23.85C2125.649,4214.891,2101.348,4202.291,2099.999,4179.34z"/>
</g>
</svg>
