<svg width="1593" height="1593" viewBox="0 0 1593 1593" fill="none" xmlns="http://www.w3.org/2000/svg">
<path d="M105.428 981.899C105.428 1066.24 116.105 1156.01 135.964 1241.66C50.127 1114.57 0 961.36 0 796.442C0 774.992 0.852996 753.753 2.521 732.735C37.331 657.728 74.164 617.579 105.668 594.145C137.852 570.194 169.883 559.076 201.09 560.974C187.959 588.979 176.094 617.464 165.542 646.38C125.651 755.651 105.428 868.545 105.428 981.899Z" fill="#E05510"/>
<path d="M13.0732 651.958C28.2742 569.025 56.3082 490.586 95.0582 418.78C154.567 404.94 214.939 400.56 291.259 404.451C262.506 446.009 236.868 489.1 214.479 533.485C173.075 527.533 129.629 540.462 88.5022 571.075C61.1582 591.423 35.0792 619.486 13.0732 651.958Z" fill="#E05510"/>
<path d="M114.131 385.388C163.922 302.915 228.242 230.198 303.547 170.794C305.282 188.161 311.79 203.611 317.636 213.051C331.553 235.488 352.379 253.296 379.532 265.966C385.216 268.621 391.187 271.036 397.378 273.193C373.475 298.649 350.693 325.236 329.166 352.868C322.975 360.804 316.917 368.816 310.975 376.877C309.748 376.772 308.521 376.657 307.314 376.561L307.055 376.542C232.152 371.865 171.962 374.491 114.131 385.388Z" fill="#E05510"/>
<path d="M342.075 197.889C335.193 186.8 328.522 165.983 333.879 148.002C463.287 55.523 621.544 0.815 792.538 0C654.907 56.097 527.014 142.002 419.727 250.037C384.63 240.501 357.266 222.387 342.075 197.889Z" fill="#E05510"/>
<path d="M930.459 1548.59C955.953 1555.48 982.358 1560.65 1009.49 1564.09C941.683 1582.87 870.25 1592.9 796.461 1592.9C549.137 1592.9 328.141 1480.17 182.056 1303.29C151.146 1200.42 134.182 1086.84 134.182 981.901C134.182 871.921 153.82 762.343 192.551 656.234C203.698 625.698 216.358 595.651 230.467 566.151C264.616 575.304 302.934 596.974 349.859 662.771C381.324 706.878 413.672 767.355 445.99 842.526C483.359 929.408 521.936 1038.78 560.657 1167.59C601.975 1305.01 674.5 1409.66 776.228 1478.62C822.319 1509.86 874.208 1533.41 930.459 1548.59Z" fill="#E05510"/>
<path d="M454.222 256.354C572.512 141.361 715.012 53.501 867.154 3.078C1092.84 22.927 1291.5 136.895 1423.66 305.493C1409.63 293.005 1395.08 281.139 1380.03 269.916C1303.53 212.851 1231.74 185.593 1184.99 172.769C1049.74 135.687 911.27 172.568 777.367 208.231C684.773 232.882 589.408 258.29 496.689 258.28C484.498 258.28 472.326 257.849 460.23 256.9C458.209 256.747 456.215 256.555 454.222 256.354Z" fill="#E05510"/>
<path d="M1496.71 1176.23C1406.63 1341.97 1259.44 1472.15 1081.55 1540.36C1031.33 1539.57 983.115 1533.03 937.953 1520.84C884.788 1506.48 835.803 1484.27 792.367 1454.82C696.245 1389.67 627.554 1290.24 588.201 1159.31C549.154 1029.45 510.194 919.045 472.403 831.166C439.279 754.117 405.926 691.848 373.272 646.063C323.769 576.672 280.553 551.13 243.452 539.955C266.953 494.18 294.029 449.824 324.507 407.173C456.79 422.863 686.355 496.768 923.136 632.798C1051.94 706.789 1165.76 789.339 1261.42 878.148C1363.74 973.149 1442.81 1073.33 1496.71 1176.23Z" fill="#E05510"/>
<path d="M1592.92 796.442C1592.92 921.547 1564.08 1039.91 1512.68 1145.25C1457.66 1045.66 1379.88 948.891 1280.98 857.073C1183.73 766.788 1068.15 682.944 937.465 607.861C824.322 542.869 702.658 486.437 585.642 444.678C495.846 412.638 411.705 390.45 344.011 380.731C346.599 377.319 349.206 373.926 351.841 370.543C376.013 339.518 401.814 309.845 429.024 281.658C438.426 283.479 448.126 284.802 458.007 285.578C470.936 286.575 483.875 287.044 496.843 287.044C593.137 287.044 690.38 261.147 784.767 236.017C850.372 218.545 918.21 200.478 984.093 191.689C1057.05 181.961 1120.28 184.846 1177.38 200.507C1221.75 212.67 1289.94 238.586 1362.84 292.958C1424 338.58 1476.57 395.328 1519.5 461.988C1566.62 563.676 1592.92 676.992 1592.92 796.442Z" fill="#E05510"/>
</svg>
