<?xml version="1.0" encoding="utf-8"?>
<!-- Generator: Adobe Illustrator 27.5.0, SVG Export Plug-In . SVG Version: 6.00 Build 0)  -->
<svg version="1.1" id="Layer_1" xmlns="http://www.w3.org/2000/svg" xmlns:xlink="http://www.w3.org/1999/xlink" x="0px" y="0px"
	 viewBox="0 0 491.52 491.52" style="enable-background:new 0 0 491.52 491.52;" xml:space="preserve">
<g id="Layer_x5F_1">
	<g id="_304580408">
		<path id="_304581584" style="fill-rule:evenodd;clip-rule:evenodd;" d="M266.881,241.3c-0.88,0-1.631,0.751-1.631,1.641
			l0.002,17.519c0,0.881,0.748,1.631,1.628,1.631l187.492-0.001c0.889,0,1.639-0.749,1.639-1.629l0.002-17.52
			c0-0.89-0.752-1.639-1.642-1.639L266.881,241.3L266.881,241.3z M454.371,271.691h-187.49c-6.19,0-11.231-5.04-11.231-11.23
			l0.001-17.52c0-6.19,5.039-11.24,11.229-11.24l187.492,0c6.201,0,11.239,5.05,11.239,11.24v17.519
			C465.61,266.65,460.57,271.691,454.371,271.691L454.371,271.691z"/>
		<path id="_304581512" style="fill-rule:evenodd;clip-rule:evenodd;" d="M414.652,460.989H306.6c-2.529,0-4.63-1.969-4.79-4.509
			c-3.859-62.03-15.59-125.34-34.85-188.18c-0.779-2.531,0.64-5.22,3.18-6c2.53-0.771,5.22,0.65,5.99,3.19
			c19.02,62.039,30.78,124.55,34.97,185.9l99.061,0c4.181-61.35,15.939-123.86,34.959-185.9c0.78-2.54,3.46-3.97,5.99-3.19
			c2.541,0.779,3.96,3.47,3.19,6c-19.27,62.84-30.99,126.15-34.86,188.18C419.292,459.019,417.19,460.99,414.652,460.989
			L414.652,460.989z"/>
		<path id="_304581440" style="fill-rule:evenodd;clip-rule:evenodd;" d="M429.751,349.289c-1.121,0-2.242-0.389-3.152-1.189
			c-32.97-28.74-74.14-54.6-122.39-76.85c-2.409-1.11-3.46-3.96-2.35-6.37c1.111-2.4,3.97-3.46,6.37-2.35
			c49.08,22.64,91.029,48.99,124.679,78.34c2.001,1.74,2.2,4.77,0.46,6.77C432.42,348.73,431.09,349.291,429.751,349.289
			L429.751,349.289z"/>
		<path id="_304581368" style="fill-rule:evenodd;clip-rule:evenodd;" d="M422.311,390.409c-1.08,0-2.171-0.359-3.071-1.109
			c-37.098-30.78-83.91-58.09-139.12-81.17c-2.448-1.02-3.6-3.84-2.58-6.28c1.021-2.45,3.83-3.6,6.28-2.58
			c56.091,23.45,103.72,51.25,141.55,82.64c2.042,1.7,2.32,4.72,0.63,6.76C425.052,389.82,423.68,390.41,422.311,390.409
			L422.311,390.409z"/>
		<path id="_304581296" style="fill-rule:evenodd;clip-rule:evenodd;" d="M415.891,444.1c-1.051,0-2.112-0.35-3.002-1.06
			c-3.96-3.17-8.01-6.45-12.14-9.79c-31.368-25.431-66.94-54.25-108.83-72.61c-2.42-1.071-3.53-3.9-2.47-6.33
			c1.072-2.421,3.9-3.53,6.33-2.46c43.072,18.879,79.17,48.13,111.02,73.94c4.11,3.329,8.15,6.6,12.09,9.76
			c2.071,1.659,2.41,4.68,0.75,6.75C418.69,443.48,417.299,444.101,415.891,444.1L415.891,444.1z"/>
		<path id="_304581224" style="fill-rule:evenodd;clip-rule:evenodd;" d="M389.971,460.989c-0.941,0-1.882-0.279-2.712-0.839
			c-25.589-17.51-54.94-33.81-87.25-48.45c-2.41-1.101-3.48-3.94-2.39-6.36c1.092-2.411,3.94-3.48,6.35-2.39
			c32.821,14.87,62.66,31.45,88.71,49.28c2.19,1.49,2.75,4.48,1.25,6.67C392.999,460.259,391.499,460.99,389.971,460.989
			L389.971,460.989z"/>
		<path id="_304581152" style="fill-rule:evenodd;clip-rule:evenodd;" d="M282.37,310.049c-1.289,0-2.57-0.509-3.51-1.529
			c-1.809-1.94-1.7-4.98,0.24-6.78c11.831-11.01,24.89-21.72,38.82-31.83c2.151-1.55,5.15-1.08,6.71,1.07
			c1.552,2.14,1.08,5.14-1.07,6.7c-13.61,9.889-26.37,20.34-37.92,31.09C284.71,309.63,283.54,310.05,282.37,310.049L282.37,310.049
			z"/>
		<path id="_304581080" style="fill-rule:evenodd;clip-rule:evenodd;" d="M291.5,349.289c-1.338,0-2.67-0.559-3.62-1.649
			c-1.739-2-1.53-5.03,0.47-6.77c33.651-29.35,75.6-55.7,124.67-78.34c2.41-1.11,5.26-0.05,6.37,2.35
			c1.112,2.409,0.06,5.26-2.35,6.37c-48.239,22.249-89.42,48.11-122.39,76.85C293.75,348.9,292.62,349.29,291.5,349.289
			L291.5,349.289z"/>
		<path id="_304581008" style="fill-rule:evenodd;clip-rule:evenodd;" d="M298.95,390.409c-1.379,0-2.75-0.589-3.7-1.739
			c-1.689-2.041-1.41-5.06,0.63-6.75c37.842-31.4,85.46-59.2,141.551-82.65c2.451-1.021,5.26,0.13,6.28,2.58
			c1.031,2.439-0.13,5.25-2.57,6.28c-55.218,23.079-102.03,50.39-139.13,81.17C301.11,390.049,300.03,390.41,298.95,390.409
			L298.95,390.409z"/>
		<path id="_304580936" style="fill-rule:evenodd;clip-rule:evenodd;" d="M305.36,444.1c-1.399,0-2.8-0.62-3.741-1.8
			c-1.659-2.07-1.33-5.09,0.74-6.75c3.952-3.16,7.97-6.42,12.09-9.76c31.852-25.81,67.95-55.06,111.03-73.94
			c2.42-1.07,5.25,0.04,6.32,2.46c1.061,2.429-0.04,5.26-2.47,6.33c-41.89,18.359-77.46,47.18-108.84,72.61
			c-4.129,3.349-8.17,6.62-12.13,9.79C307.48,443.751,306.42,444.101,305.36,444.1L305.36,444.1z"/>
		<path id="_304580864" style="fill-rule:evenodd;clip-rule:evenodd;" d="M331.292,460.989c-1.53,0-3.042-0.729-3.972-2.089
			c-1.498-2.19-0.94-5.18,1.25-6.67c26.052-17.83,55.9-34.41,88.71-49.28c2.421-1.09,5.26-0.02,6.36,2.39
			c1.092,2.42,0.02,5.26-2.39,6.35c-32.309,14.65-61.67,30.95-87.26,48.46C333.161,460.709,332.22,460.99,331.292,460.989
			L331.292,460.989z"/>
		<path id="_304580792" style="fill-rule:evenodd;clip-rule:evenodd;" d="M438.88,310.049c-1.17,0-2.34-0.419-3.27-1.279
			c-11.548-10.75-24.31-21.21-37.92-31.09c-2.138-1.561-2.62-4.56-1.06-6.7c1.561-2.151,4.56-2.62,6.7-1.07
			c13.932,10.109,26.99,20.82,38.82,31.83c1.941,1.81,2.05,4.84,0.25,6.78C441.452,309.54,440.17,310.05,438.88,310.049
			L438.88,310.049z"/>
		<path id="_304580720" style="fill-rule:evenodd;clip-rule:evenodd;" d="M194.82,333.43h23.022V40.13H194.82V333.43z
			 M222.641,343.03H190.02c-2.65,0-4.801-2.15-4.801-4.8l0.002-302.9c0-2.65,2.148-4.8,4.798-4.8l32.621-0.001
			c2.651,0,4.798,2.151,4.798,4.801l0.001,302.899C227.44,340.88,225.29,343.03,222.641,343.03L222.641,343.03z"/>
		<path id="_304580648" style="fill-rule:evenodd;clip-rule:evenodd;" d="M190.021,196.379H54.881c-2.65,0-4.801-2.149-4.801-4.799
			c0.002-2.651,2.15-4.8,4.8-4.8l135.141-0.001c2.651,0,4.799,2.15,4.799,4.8C194.82,194.229,192.67,196.38,190.021,196.379
			L190.021,196.379z M190.021,221.24H54.881c-2.65,0-4.801-2.149-4.801-4.799c0.002-2.65,2.15-4.8,4.8-4.8l135.141,0
			c2.651,0,4.799,2.15,4.799,4.801C194.82,219.09,192.67,221.24,190.021,221.24L190.021,221.24z"/>
		<path id="_304580576" style="fill-rule:evenodd;clip-rule:evenodd;" d="M260.451,247.74h-37.809c-2.65,0-4.801-2.15-4.801-4.8
			c0.002-2.651,2.15-4.8,4.8-4.8l37.81-0.001c2.65,0,4.8,2.151,4.8,4.801C265.252,245.59,263.1,247.74,260.451,247.74
			L260.451,247.74z M260.451,265.26h-37.809c-2.65,0-4.801-2.15-4.801-4.8c0.002-2.66,2.15-4.8,4.8-4.8h37.81
			c2.65,0,4.8,2.14,4.8,4.8C265.252,263.11,263.1,265.26,260.451,265.26L260.451,265.26z"/>
		<path id="_304580504" style="fill-rule:evenodd;clip-rule:evenodd;" d="M190.021,292.759c-1.269,0-2.541-0.509-3.491-1.499
			l-67.569-71.52c-1.82-1.93-1.731-4.97,0.189-6.79c1.931-1.821,4.97-1.73,6.79,0.19l67.57,71.519
			c1.821,1.931,1.73,4.971-0.19,6.791C192.39,292.319,191.2,292.76,190.021,292.759L190.021,292.759z"/>
		<path id="_304580456" style="fill-rule:evenodd;clip-rule:evenodd;" d="M35.511,244.83h14.571v-81.64H35.511V244.83L35.511,244.83
			z M54.881,254.43H30.712c-2.662,0-4.802-2.149-4.802-4.799l0-91.241c0-2.65,2.14-4.799,4.8-4.799l24.171,0
			c2.651,0,4.798,2.15,4.798,4.8l0.001,91.24C59.681,252.28,57.53,254.431,54.881,254.43L54.881,254.43z"/>
	</g>
</g>
</svg>
